<svg width="542" height="120" viewBox="0 0 542 120" fill="none" xmlns="http://www.w3.org/2000/svg">
<path fill-rule="evenodd" clip-rule="evenodd" d="M37.9882 25C40.607 25 42.7298 27.0267 42.7298 29.5267V40.2544C42.7298 42.7544 40.607 44.7812 37.9882 44.7812H27.4617C24.843 44.7812 22.7202 46.8079 22.7202 49.3079V115.423C22.7202 117.923 20.5972 119.95 17.9785 119.95H4.7416C2.1229 119.95 0 117.923 0 115.423V49.3079C0 46.8079 2.1229 44.7812 4.74162 44.7812H17.2682C19.8868 44.7812 22.0097 42.7544 22.0097 40.2544V29.5267C22.0097 27.0267 24.1327 25 26.7513 25L37.9882 25ZM79.4285 25C82.0471 25 84.1701 27.0267 84.1701 29.5267V40.2544C84.1701 42.7544 86.293 44.7812 88.9116 44.7812H101.438C104.057 44.7812 106.18 46.8079 106.18 49.3079V115.423C106.18 117.923 104.057 119.95 101.438 119.95H88.2013C85.5825 119.95 83.4596 117.923 83.4596 115.423V49.3079C83.4596 46.8079 81.3368 44.7812 78.718 44.7812H68.1916C65.5728 44.7812 63.45 42.7544 63.45 40.2544V29.5267C63.45 27.0267 65.5728 25 68.1916 25L79.4285 25ZM58.7083 62.8669C61.3271 62.8669 63.45 64.8935 63.45 67.3936V96.7721C63.45 99.2722 61.3271 101.299 58.7083 101.299H47.4715C44.8527 101.299 42.7298 99.2722 42.7298 96.7721V67.3936C42.7298 64.8935 44.8527 62.8669 47.4715 62.8669H58.7083Z" fill="#4B4963"/>
<path fill-rule="evenodd" clip-rule="evenodd" d="M85.7045 74.0194C88.3233 74.0194 90.4461 76.046 90.4461 78.5461V87.0096C90.4461 89.5097 88.3233 91.5364 85.7045 91.5364H11.483C8.86421 91.5364 4.74135 87.0096 4.74135 87.0096V78.5461C4.74135 76.046 8.86421 74.0194 11.483 74.0194H85.7045Z" fill="#4B4963"/>
<path d="M175.969 46.1875L175.922 51.7656V58.2812C175.922 62.0625 174.234 65.5 170.859 68.5938L140.953 94H124.875C124.938 92.625 124.969 91.0625 124.969 89.3125V81.7656C124.969 79.4531 125.406 77.5 126.281 75.9062C127.188 74.3125 128.406 72.8281 129.938 71.4531L159.797 46.1875H175.969ZM123.234 52.3281C123.234 49.7344 123.672 47.6875 124.547 46.1875H147.281L129 61.9375H127.594C124.688 60.0625 123.234 56.8594 123.234 52.3281ZM177 87.8594C177 90.4844 176.594 92.5312 175.781 94H153.047L171.938 77.7812C175.312 80.1562 177 83.5156 177 87.8594ZM247.969 97.1406C247.969 111.922 240.547 119.312 225.703 119.312H222.797V46.1875H247.969V97.1406ZM188.25 46.1875H214.172V94H209.953C198.453 94 191.594 90.0938 189.375 82.2812C188.625 79.75 188.25 76.8281 188.25 73.5156V46.1875ZM283.359 94C267.891 94 260.156 86.9375 260.156 72.8125V46.4688L279.984 33.4844H287.016V94H283.359ZM293.812 46.1875H316.266V61.8906H293.812V46.1875ZM293.859 73.9844H319.875V78.1094C319.875 83.4219 318.25 87.3438 315 89.875C311.469 92.625 305.766 94 297.891 94H293.859V73.9844ZM367.688 59.5C367.688 50.625 373.422 46.1875 384.891 46.1875H391.453V70.0938H367.688V59.5ZM334.875 46.1875H360.938V94H334.875V46.1875ZM437.812 46.1875H441.422C449.109 46.1875 455.016 48.5625 459.141 53.3125C462.859 57.625 464.719 63.3438 464.719 70.4688C464.719 77.7188 462.656 83.4062 458.531 87.5312C454.219 91.8438 448.125 94 440.25 94H437.812V46.1875ZM403.312 70.6562C403.312 67.2188 403.766 64.0312 404.672 61.0938C405.578 58.125 406.984 55.5312 408.891 53.3125C413.016 48.5625 418.922 46.1875 426.609 46.1875H430.219V94H427.781C419.906 94 413.812 91.8438 409.5 87.5312C405.375 83.4062 403.312 77.7812 403.312 70.6562ZM509.859 46.1875H514.078C525.578 46.1875 532.438 50.0938 534.656 57.9062C535.406 60.4375 535.781 63.3594 535.781 66.6719V94H509.859V46.1875ZM476.062 46.1875H502.125V94H476.062V46.1875Z" fill="#4B4963"/>
</svg>
